<?xml version="1.0" encoding="utf-8"?>
<!-- Generator: Adobe Illustrator 23.0.6, SVG Export Plug-In . SVG Version: 6.00 Build 0)  -->
<svg version="1.1" id="Layer_1" xmlns="http://www.w3.org/2000/svg" xmlns:xlink="http://www.w3.org/1999/xlink" x="0px" y="0px"
	 viewBox="0 0 2032.7 1060.6" style="enable-background:new 0 0 2032.7 1060.6;" xml:space="preserve">
<style type="text/css">
	.st0{fill:#4E4E4F;}
</style>
<title>smartinnovation</title>
<g>
	<path class="st0" d="M12.6,938.4h-12V705.2h12V938.4z"/>
	<path class="st0" d="M13.1,939H0V704.6h13.1V939z M1.1,937.9H12V705.7H1.1V937.9z"/>
	<path class="st0" d="M80.9,938.4h-12V585.6h12V938.4z"/>
	<path class="st0" d="M81.4,939H68.3V585h13.1V939z M69.4,937.9h10.8V586.1H69.4V937.9z"/>
	<path class="st0" d="M149.1,938.4h-12V418.8h12V938.4z"/>
	<path class="st0" d="M149.7,939h-13.1V418.2h13.1V939z M137.7,937.9h10.8V419.4h-10.8V937.9z"/>
	<path class="st0" d="M217.4,1060h-12V249.3h12V1060z"/>
	<path class="st0" d="M218,1060.6h-13.1V248.7H218V1060.6z M206,1059.5h10.9V249.9H206V1059.5z"/>
	<path class="st0" d="M439.9,641.5h-34.5V414.8h34.5V641.5z"/>
	<path class="st0" d="M607.8,641.5c-43.5-77.3-76-130.8-98.6-176.9h-1l1.3,74v102.9h-32.8V414.8h39.2
		c33.2,57.8,70.7,119.8,96.9,174.9h1l-1.7-74.7V414.8H645v226.7H607.8z"/>
	<path class="st0" d="M813,641.5c-43.5-77.3-76-130.8-98.6-176.9h-1l1.3,74v102.9h-32.9V414.8H721c33.2,57.8,70.7,119.8,96.9,174.9
		h1l-1.6-74.7V414.8h32.9v226.7H813z"/>
	<path class="st0" d="M876.3,529.3c0-68,36.8-118.2,99.2-118.2c63.4,0,98.9,50.8,98.9,117.2c0,69.4-36.5,116.8-98.9,116.8
		S876.3,595.7,876.3,529.3z M1038,528.6c0-48.1-18.2-89-62.4-89c-44.5,0-62.7,40.5-62.7,89.3c0,48.5,19.6,87.3,62.7,87.3
		C1018.4,616.2,1038,576.8,1038,528.6L1038,528.6z"/>
	<path class="st0" d="M1150.5,641.5l-71.4-226.7h37.9l36.5,127.1l17.9,65.4h0.7l17.6-65.4l36.5-127.1h37.2l-71.7,226.7L1150.5,641.5
		L1150.5,641.5z"/>
	<path class="st0" d="M1429,641.5h-37.5l-20.2-65h-73c-1.7,7.6-17.9,57.4-19.9,65h-36.5l72-227h43.2L1429,641.5z M1334.4,444.3
		l-9.3,33.2l-20.2,71.4h59.7l-20.2-71.4l-9.3-33.2L1334.4,444.3z"/>
	<path class="st0" d="M1403.7,444.3l1.7-29.5h158.3l-2,29.5H1501v197.1h-34.8V444.3H1403.7z"/>
	<path class="st0" d="M1614.2,641.5h-34.5V414.8h34.5V641.5z"/>
	<path class="st0" d="M1640.4,529.3c0-68,36.8-118.2,99.2-118.2c63.4,0,98.9,50.8,98.9,117.2c0,69.4-36.5,116.8-98.9,116.8
		S1640.4,595.7,1640.4,529.3z M1802,528.6c0-48.1-18.3-89-62.4-89c-44.5,0-62.7,40.5-62.7,89.3c0,48.5,19.6,87.3,62.7,87.3
		C1782.4,616.2,1802,576.8,1802,528.6L1802,528.6z"/>
	<path class="st0" d="M1995.5,641.5c-43.5-77.3-76-130.8-98.6-176.9h-1l1.3,74v102.9h-32.9V414.8h39.2
		c33.2,57.8,70.7,119.8,96.9,174.9h1l-1.7-74.7V414.8h32.9v226.7H1995.5z"/>
	<path class="st0" d="M499,286.6c0-53.1-99.6-36.9-99.6-109.9c0-38.2,32.5-61.1,73.7-61.1c21.9,0,40.5,4.7,53.4,10.6l-5.6,28.5
		c-15.3-6.7-31.8-10.2-48.5-10.3c-24.2,0-37.8,13.9-37.8,30.2c0,49.1,99.9,33.9,99.9,108.9c0,38.5-28.9,65.4-79,65.4
		c-21.6,0-46.1-5.3-59.8-12.6l5.6-29.2c14.9,7.6,35.9,13,55.4,13C482.4,320.2,499,307.5,499,286.6z"/>
	<path class="st0" d="M598.2,167.5h-0.7l-2.7,86.6l-3.7,91.6h-33.2L568,119h45.1l33.2,101.2l22.6,77.3h1l23.2-77.3L726.7,119h44.8
		l9,226.7h-34.2l-3.3-91.6l-2-86.6h-0.7l-57.8,178.3h-29.2L598.2,167.5z"/>
	<path class="st0" d="M983.2,345.7h-37.5l-20.2-65.1h-73c-1.7,7.6-17.9,57.4-19.9,65.1H796l72-227h43.2L983.2,345.7z M888.6,148.6
		l-9.3,33.2l-20.2,71.4h59.7l-20.2-71.4l-9.3-33.2L888.6,148.6L888.6,148.6z"/>
	<path class="st0" d="M1103.4,241.5v0.7l51.8,103.6h-37.5l-45.8-94.9h-35.2v94.9h-34.2V121c17.6-2,40.2-3,62.4-3
		c55.4,0,82.7,22.2,82.7,63.7C1147.5,212.3,1129.3,234.2,1103.4,241.5z M1036.7,223.6h30.9c27.2,0,44.5-14.9,44.5-39.5
		c0-29.2-17.6-38.5-48.8-38.5c-8.9,0-17.7,0.4-26.6,1.3V223.6z"/>
	<path class="st0" d="M1154.5,148.6l1.7-29.5h158.3l-2,29.5h-60.7v197.2H1217V148.6H1154.5z"/>
	<path class="st0" d="M285.8,938.4h-12v-939h12V938.4z"/>
	<path class="st0" d="M286.3,939h-13.1V-1.1h13.1V939z M274.3,937.9h10.8V0h-10.8V937.9z"/>
	<path class="st0" d="M543.3,938.4c-39.5-62.8-86.8-141-126.6-210.1h-0.6l1.3,90.4v119.7h-9.5V713.9h9.2
		c43.7,70.7,93.4,152.5,127.9,211h0.7l-1.6-91.7V713.9h9.5v224.5H543.3z"/>
	<path class="st0" d="M554,939h-11l-0.2-0.3c-41.6-66.2-88.7-144.4-126.1-209.3l1.3,89.4V939h-10.7V713.3h10.1l0.2,0.3
		C462.3,786,511.1,866.5,545,923.9l-1.6-90.7V713.3H554V939z M543.6,937.9h9.3V714.4h-8.4v118.8l1.7,92.3h-1.6l-0.2-0.3
		c-33.9-57.4-82.8-138.1-127.7-210.8h-8.3v223.4h8.4V818.7l-1.3-91h1.6l0.2,0.3C454.6,793,501.9,871.4,543.6,937.9L543.6,937.9z"/>
	<path class="st0" d="M689.9,707c57.9,0,91.1,45.4,91.1,115.7s-33.2,115.7-91.1,115.7s-91.1-45.4-91.1-115.8S632,707,689.9,707z
		 M689.9,716.2c-59.2,0-80.9,53.9-80.9,106.5s21.7,106.5,80.9,106.5s80.9-53.9,80.9-106.5S749.1,716.2,689.9,716.2L689.9,716.2z"/>
	<path class="st0" d="M689.9,939c-28.3,0-51.7-11-67.7-31.7c-15.7-20.3-24-49.6-24-84.6s8.3-64.3,24-84.6
		c16-20.7,39.4-31.7,67.7-31.7s51.7,11,67.7,31.7c15.7,20.3,24,49.6,24,84.6s-8.3,64.3-24,84.6C741.6,928,718.2,939,689.9,939z
		 M689.9,707.6c-56.7,0-90.5,43-90.5,115.2s33.8,115.1,90.5,115.1s90.5-43,90.5-115.1S746.5,707.5,689.9,707.6L689.9,707.6z
		 M689.9,929.8c-60,0-81.4-55.3-81.4-107.1s21.4-107.1,81.4-107.1s81.5,55.3,81.5,107.1S749.9,929.8,689.9,929.8L689.9,929.8z
		 M689.9,716.8c-59.2,0-80.3,54.7-80.3,105.9s21.1,105.9,80.3,105.9s80.3-54.7,80.3-105.9S749.1,716.7,689.9,716.8L689.9,716.8z"/>
	<path class="st0" d="M896,831.2v0.7l55.6,106.5h-10.9l-54.6-105.5h-50v105.5h-9.5V715.8c16.4-2,38.1-3,48.3-3
		c50.3,0,70.7,24.3,70.7,58.2C945.6,803.6,925.9,824.7,896,831.2z M836.2,824h44.1c32.5,0,55.2-19.7,55.2-52.9c0-36.8-25-49-60.8-49
		c-13.8,0-31.2,1.3-38.5,2.6V824z"/>
	<path class="st0" d="M952.5,939h-12.2l-0.2-0.3l-54.4-105.2h-49V939H826V715.3l0.5-0.1c16.8-2,38.8-3,48.4-3
		c45.9,0,71.2,20.9,71.2,58.8c0,31.5-18.1,53.5-49.6,60.6v0.1L952.5,939z M941,937.9h9.6L895.4,832v-1.3l0.5-0.1
		c31.3-6.9,49.2-28.6,49.2-59.6c0-37.2-24.9-57.6-70.1-57.6c-9.5,0-31,0.9-47.8,2.9v221.5h8.4V832.3h50.9l0.2,0.3L941,937.9z
		 M880.2,824.6h-44.6V724.2l0.5-0.1c7-1.3,24.2-2.6,38.6-2.6c41.3,0,61.4,16.2,61.4,49.5C936,803.6,914.1,824.6,880.2,824.6z
		 M836.7,823.4h43.5c33.2,0,54.7-20.5,54.7-52.4c0-32.6-19.7-48.4-60.2-48.4c-14,0-30.7,1.3-37.9,2.5L836.7,823.4L836.7,823.4z"/>
	<path class="st0" d="M1100.8,713.9L1136,846l19.4,76.6h1l18.7-76.6l34.5-132.2h9.9L1161,938.4h-9.5l-55.9-213h-0.7l-55.9,213h-9.5
		l-58.6-224.5h9.9l34.5,132.1l18.7,76.6h1l19.4-76.6l35.2-132.2L1100.8,713.9z"/>
	<path class="st0" d="M1161.4,939H1151l-0.1-0.4l-55.7-212.2L1039.4,939H1029l-0.1-0.4l-58.7-225.3h11l34.6,132.6l18.7,76.1h0.1
		l19.3-76.2l35.3-132.6h12.1l0.1,0.4l35.2,132.1l19.3,76.2h0.1l18.6-76.2l34.6-132.6h11L1161.4,939z M1151.9,937.9h8.7l58.2-223.4
		h-8.7l-34.4,131.7l-18.8,77h-1.9l-19.5-77l-35.1-131.7H1090l-35,131.7l-19.5,77h-1.9l-18.8-77l-34.4-131.7h-8.7l58.2,223.4h8.7
		l55.9-213h1.6l0.1,0.4L1151.9,937.9z"/>
	<path class="st0" d="M1238.2,938.4l79.2-224.9h6.2l79.2,224.9h-9.9l-27.9-80.9h-89l-27.9,80.9H1238.2z M1320.4,725.4l-15.1,48
		l-26,75.3h82.5l-26-75.3l-15.1-48H1320.4z"/>
	<path class="st0" d="M1403.7,939h-11.1l-27.9-80.9h-88.3l-27.9,80.9h-11.1l0.3-0.8L1317,713h7L1403.7,939z M1393.4,937.9h8.7
		l-78.8-223.7h-5.4L1239,937.8h8.6l27.9-80.8h89.9L1393.4,937.9z M1362.6,849.3h-84.1l26.2-76l15.3-48.5h1.2l15.2,48.4L1362.6,849.3
		z M1280.1,848.1h80.9l-25.7-74.5l-14.7-46.8l-14.8,46.8L1280.1,848.1z"/>
	<path class="st0" d="M1474.5,834.5l27.6-52.9l36.5-67.7h10.8l-70.3,129.2v95.3h-9.5v-95.3l-70.3-129.2h10.8l36.5,67.7l27.6,52.9
		H1474.5z"/>
	<path class="st0" d="M1479.7,939H1469v-95.8l-70.7-129.9h12.2l36.7,68l27.3,52.3l27.3-52.3l36.7-68h12.2L1480,843.2V939H1479.7z
		 M1470.2,937.9h8.4v-95l0.1-0.1l69.9-128.3h-9.5l-36.3,67.4l-27.8,53.2h-1l-27.8-53.2l-36.3-67.4h-9.6l70,128.5L1470.2,937.9z"/>
</g>
</svg>
