<?xml version="1.0" encoding="iso-8859-1"?>
<!-- Generator: Adobe Illustrator 19.0.0, SVG Export Plug-In . SVG Version: 6.00 Build 0)  -->
<svg version="1.1" id="Capa_1" xmlns="http://www.w3.org/2000/svg" xmlns:xlink="http://www.w3.org/1999/xlink" x="0px" y="0px"
	 viewBox="0 0 512.003 512.003" style="enable-background:new 0 0 512.003 512.003;" xml:space="preserve">
<g>
	<g>
		<path d="M342.375,249.84l-14.635-14.636c-2.929-2.928-7.678-2.928-10.607,0c-2.929,2.93-2.929,7.678,0,10.608l1.896,1.896h-38.031
			c-0.791-9.373-8.229-16.876-17.577-17.756v-61.337l1.896,1.896c2.929,2.928,7.678,2.928,10.607,0c2.929-2.93,2.929-7.678,0-10.608
			l-14.636-14.636c-2.928-2.928-7.677-2.928-10.607,0l-14.636,14.636c-2.929,2.929-2.929,7.678,0,10.607
			c2.929,2.93,7.677,2.929,10.607,0.001l1.768-1.768v61.209c-9.893,0.931-17.66,9.277-17.66,19.408v11.319
			c0,10.753,8.749,19.501,19.501,19.501h11.319c10.068,0,18.375-7.668,19.394-17.471h37.925l-1.767,1.767
			c-2.929,2.93-2.929,7.679,0,10.608c2.93,2.929,7.678,2.928,10.607,0l14.636-14.636
			C345.304,257.518,345.304,252.769,342.375,249.84z M266.081,260.679c0,2.439-2.061,4.5-4.5,4.5h-11.319
			c-2.439,0-4.5-2.061-4.5-4.5V249.36c0-2.439,2.061-4.5,4.5-4.5h11.319c2.439,0,4.5,2.061,4.5,4.5V260.679z"/>
	</g>
</g>
<g>
	<g>
		<path d="M419.512,253.047c-0.001-0.023-0.002-0.046-0.003-0.068C416.513,164.858,343.965,94.985,256,94.985
			c-90.218,0-163.617,73.399-163.617,163.618S165.781,422.22,256,422.22C348.027,422.22,422.626,345.819,419.512,253.047z
			 M263.501,110.174c0.001,0,0.003,0,0.004,0c75.281,3.786,136.319,64.305,140.833,139.474h-10.756
			c-4.448-69.458-60.478-125.033-130.081-128.798V110.174z M388.839,325.185l-11.884-6.861c-3.588-2.07-8.174-0.843-10.246,2.745
			c-2.071,3.587-0.842,8.174,2.745,10.246l11.977,6.914c-11.371,17.851-26.449,33.119-44.138,44.723l-7.128-12.347
			c-2.072-3.588-6.659-4.815-10.246-2.745c-3.587,2.071-4.816,6.658-2.745,10.246l7.178,12.434
			c-18.384,9.564-39.002,15.401-60.853,16.492v-14.544c0-4.143-3.358-7.5-7.5-7.5c-4.142,0-7.5,3.357-7.5,7.5v14.544
			c-21.849-1.091-42.468-6.928-60.852-16.492l7.178-12.434c2.071-3.587,0.842-8.174-2.745-10.246
			c-3.588-2.071-8.176-0.843-10.246,2.745l-7.128,12.347c-17.689-11.604-32.767-26.872-44.14-44.723l11.977-6.914
			c3.587-2.071,4.816-6.658,2.745-10.246c-2.071-3.588-6.658-4.814-10.246-2.745l-11.884,6.861
			c-9.232-18.343-14.77-38.847-15.643-60.535h13.145c4.142,0,7.5-3.357,7.5-7.5s-3.358-7.5-7.5-7.5h-13.001
			c1.284-21.496,7.156-41.774,16.651-59.869l10.731,6.195c3.588,2.071,8.174,0.842,10.246-2.745s0.842-8.174-2.745-10.246
			l-10.6-6.119c11.47-17.349,26.469-32.17,43.979-43.413l5.911,10.24c2.071,3.587,6.657,4.816,10.246,2.745
			c3.587-2.071,4.816-6.658,2.745-10.246L188.939,126c18.055-9.168,38.219-14.759,59.558-15.825c0,4.436,0,16.878,0,17.973
			c0,4.141,3.355,7.497,7.496,7.5c67.01,0.04,122.126,54.582,122.863,121.583c0.045,4.11,3.39,7.418,7.5,7.418
			c7.143,0,11.971,0,18.124,0C403.609,286.337,398.07,306.842,388.839,325.185z"/>
	</g>
</g>
<g>
	<g>
		<path d="M504.5,263.932c-4.142,0-7.5,3.357-7.5,7.5v17.192c0,0.074-0.061,0.135-0.135,0.135h-35.155
			c-3.59,0-6.676,2.544-7.362,6.067c-5.173,26.588-15.484,51.474-30.644,73.968c-2.006,2.977-1.622,6.957,0.916,9.496l24.862,24.86
			c0.054,0.054,0.054,0.139,0,0.191l-46.136,46.138c-0.054,0.052-0.14,0.053-0.192,0l-24.862-24.862
			c-2.538-2.536-6.518-2.921-9.496-0.916c-22.494,15.16-47.381,25.471-73.967,30.644c-3.523,0.687-6.067,3.772-6.067,7.362v35.155
			c0,0.074-0.061,0.135-0.135,0.135H273.85c-4.142,0-7.5,3.357-7.5,7.5c0,4.143,3.358,7.5,7.5,7.5h14.775
			c8.346,0,15.136-6.789,15.136-15.136V467.8c24.285-5.441,47.184-14.928,68.23-28.268l20.555,20.555c5.9,5.9,15.502,5.898,21.405,0
			l46.138-46.139c5.9-5.9,5.9-15.504,0-21.405l-20.554-20.554c13.34-21.046,22.826-43.945,28.269-68.231h29.063
			c8.346,0,15.136-6.789,15.136-15.136v-17.192C512,267.289,508.642,263.932,504.5,263.932z"/>
	</g>
</g>
<g>
	<g>
		<path d="M496.864,208.242h-29.063c-5.442-24.286-14.929-47.185-28.269-68.231l20.555-20.555c2.858-2.858,4.433-6.659,4.433-10.703
			c0-4.043-1.574-7.844-4.433-10.702L413.949,51.91c-5.901-5.898-15.502-5.896-21.404,0.001L371.99,72.467
			c-21.043-13.338-43.945-22.825-68.23-28.268V15.137c0-8.346-6.79-15.136-15.136-15.136h-65.249
			c-8.346,0-15.136,6.789-15.136,15.136v29.064c-24.285,5.441-47.186,14.93-68.23,28.268l-20.556-20.557
			c-5.899-5.896-15.501-5.897-21.404,0.001L51.91,98.051c-5.899,5.9-5.899,15.502,0,21.405l20.554,20.555
			c-13.337,21.044-22.825,43.944-28.268,68.23H15.136C6.789,208.242,0,215.031,0,223.377v65.248c0,8.347,6.789,15.136,15.135,15.136
			h29.063c5.442,24.285,14.928,47.184,28.268,68.23l-20.556,20.557c-5.897,5.9-5.897,15.502,0.001,21.404l46.139,46.139
			c5.9,5.898,15.503,5.898,21.405-0.002l20.554-20.555c21.046,13.34,43.945,22.826,68.231,28.269v29.064
			c0,8.346,6.79,15.136,15.136,15.136h15.472c4.142,0,7.5-3.357,7.5-7.5c0-4.143-3.358-7.5-7.5-7.5h-15.472
			c-0.074,0-0.135-0.061-0.135-0.135v-35.155c0-3.59-2.544-6.676-6.067-7.362c-26.588-5.173-51.474-15.483-73.969-30.645
			c-2.975-2.003-6.957-1.622-9.496,0.917l-24.861,24.862c-0.054,0.053-0.139,0.053-0.192,0L62.52,403.345
			c-0.054-0.054-0.054-0.141-0.001-0.192l24.862-24.862c2.538-2.538,2.922-6.519,0.916-9.496
			c-15.16-22.493-25.47-47.38-30.644-73.967c-0.686-3.523-3.772-6.067-7.362-6.067H15.136c-0.074,0-0.134-0.061-0.134-0.135v-65.248
			c0-0.074,0.06-0.135,0.134-0.135h35.155c3.59,0,6.676-2.544,7.362-6.067c5.174-26.589,15.484-51.475,30.644-73.967
			c2.006-2.976,1.622-6.957-0.916-9.496l-24.86-24.86c-0.054-0.054-0.054-0.141-0.001-0.192l46.137-46.138
			c0.053-0.053,0.141-0.055,0.193-0.001l24.862,24.862c2.537,2.536,6.518,2.921,9.496,0.916
			c22.492-15.16,47.378-25.471,73.967-30.644c3.523-0.687,6.067-3.772,6.067-7.362V15.137c0-0.074,0.061-0.135,0.135-0.135h65.249
			c0.074,0,0.135,0.061,0.135,0.135v35.155c0,3.59,2.543,6.676,6.067,7.362c26.589,5.174,51.475,15.483,73.966,30.644
			c2.977,2.005,6.958,1.622,9.496-0.916l24.862-24.862c0.054-0.055,0.14-0.054,0.193-0.002l46.138,46.14
			c0.045,0.045,0.044,0.146,0,0.19l-24.862,24.862c-2.538,2.538-2.922,6.519-0.916,9.496c15.16,22.493,25.471,47.381,30.645,73.969
			c0.686,3.523,3.772,6.067,7.362,6.067h35.155c0.074,0,0.135,0.061,0.135,0.135v13.054c0,4.143,3.358,7.5,7.5,7.5
			c4.142,0,7.5-3.357,7.5-7.5v-13.054C512,215.031,505.21,208.242,496.864,208.242z"/>
	</g>
</g>
<g>
</g>
<g>
</g>
<g>
</g>
<g>
</g>
<g>
</g>
<g>
</g>
<g>
</g>
<g>
</g>
<g>
</g>
<g>
</g>
<g>
</g>
<g>
</g>
<g>
</g>
<g>
</g>
<g>
</g>
</svg>
