<?xml version="1.0" encoding="iso-8859-1"?>
<!-- Generator: Adobe Illustrator 19.0.0, SVG Export Plug-In . SVG Version: 6.00 Build 0)  -->
<svg version="1.1" id="Capa_1" xmlns="http://www.w3.org/2000/svg" xmlns:xlink="http://www.w3.org/1999/xlink" x="0px" y="0px"
	 viewBox="0 0 480.002 480.002" style="enable-background:new 0 0 480.002 480.002;" xml:space="preserve">
<g>
	<g>
		<path d="M413.173,97.896c-1.793-1.521-4.165-2.174-6.484-1.785l-134.688,22.445v-14.555c-0.001-4.419-3.585-8.001-8.004-8
			c-0.465,0-0.929,0.041-1.387,0.121l-126.609,22.344V56.002c0.001-4.417-3.579-7.999-7.996-8c-0.001,0-0.003,0-0.004,0h-56
			c-4.417-0.001-7.999,3.579-8,7.996c0,0.001,0,0.003,0,0.004v136c-0.001,4.417,3.579,7.999,7.996,8c0.001,0,0.003,0,0.004,0H232.03
			l0.176,48h-16.205c-4.417-0.001-7.999,3.579-8,7.996c0,0.001,0,0.003,0,0.004v48c-0.001,4.417,3.579,7.999,7.996,8
			c0.001,0,0.003,0,0.004,0h16v48h-40c-4.417-0.001-7.999,3.579-8,7.996c0,0.001,0,0.003,0,0.004v104
			c-0.001,4.417,3.579,7.999,7.996,8c0.001,0,0.003,0,0.004,0h96c4.417,0.001,7.999-3.579,8-7.996c0-0.001,0-0.003,0-0.004v-104
			c0.001-4.417-3.579-7.999-7.996-8c-0.001,0-0.003,0-0.004,0h-40v-48h16c4.417,0.001,7.999-3.579,8-7.996c0-0.001,0-0.003,0-0.004
			v-48c0.001-4.417-3.579-7.999-7.996-8c-0.001,0-0.003,0-0.004,0h-15.795l-0.176-48h159.971c4.417,0.001,7.999-3.579,8-7.996
			c0-0.001,0-0.003,0-0.004v-88C416.003,101.65,414.968,99.416,413.173,97.896z M232.001,376.002h16v16c0,4.418-3.582,8-8,8
			s-8-3.582-8-8V376.002z M200.001,376.002h16v16c0,4.418-3.582,8-8,8s-8-3.582-8-8V376.002z M280.001,464.002h-80v-16h80V464.002z
			 M264.001,376.002h16v16c0,4.418-3.582,8-8,8s-8-3.582-8-8V376.002z M256.001,409.76c6.449,6.011,15.743,7.858,24,4.768v17.474
			h-80v-17.475c8.257,3.091,17.551,1.244,24-4.768C233.044,418.083,246.958,418.083,256.001,409.76z M256.001,264.002v32h-32v-32
			H256.001z M400.001,184.002h-320v-120h40v64c0.001,4.419,3.585,8.001,8.004,8c0.465,0,0.929-0.041,1.387-0.121l126.609-22.344
			v14.465c-0.002,4.416,3.576,7.998,7.992,8c0.443,0,0.884-0.036,1.321-0.109l134.688-22.445V184.002z"/>
	</g>
</g>
<g>
	<g>
		<path d="M163.454,10.596c-3.523,3.848-5.094,5.406-8.758,5.406c-3.672,0-5.25-1.562-8.773-5.406
			c-8.109-11.363-23.893-14.001-35.256-5.892c-2.277,1.625-4.268,3.616-5.892,5.892c-3.523,3.844-5.101,5.406-8.773,5.406v16
			c8.128-0.149,15.726-4.061,20.57-10.59c3.523-3.848,5.102-5.41,8.782-5.41c3.672,0,5.25,1.563,8.773,5.406
			c8.094,11.356,23.862,13.999,35.217,5.905c2.284-1.628,4.28-3.625,5.908-5.909c3.523-3.844,5.094-5.402,8.75-5.402v-16
			C175.879,0.152,168.287,4.066,163.454,10.596z"/>
	</g>
</g>
<g>
	<g>
		<rect x="120.001" y="152.002" width="16" height="16"/>
	</g>
</g>
<g>
	<g>
		<rect x="152.001" y="152.002" width="16" height="16"/>
	</g>
</g>
<g>
	<g>
		<rect x="184.001" y="152.002" width="16" height="16"/>
	</g>
</g>
<g>
	<g>
		<rect x="216.001" y="152.002" width="16" height="16"/>
	</g>
</g>
<g>
	<g>
		<rect x="248.001" y="152.002" width="16" height="16"/>
	</g>
</g>
<g>
	<g>
		<rect x="280.001" y="152.002" width="16" height="16"/>
	</g>
</g>
<g>
	<g>
		<rect x="312.001" y="152.002" width="16" height="16"/>
	</g>
</g>
<g>
	<g>
		<rect x="344.001" y="152.002" width="16" height="16"/>
	</g>
</g>
<g>
	<g>
		<rect x="189.594" y="225.583" transform="matrix(0.7071 -0.7071 0.7071 0.7071 -110.1229 209.3065)" width="16" height="24"/>
	</g>
</g>
<g>
	<g>
		<rect x="274.41" y="310.447" transform="matrix(0.7071 -0.7071 0.7071 0.7071 -145.2888 294.1353)" width="16" height="24"/>
	</g>
</g>
<g>
	<g>
		<rect x="270.426" y="229.581" transform="matrix(0.7073 -0.7069 0.7069 0.7073 -85.2817 269.2054)" width="24" height="16"/>
	</g>
</g>
<g>
	<g>
		<rect x="185.582" y="314.42" transform="matrix(0.7073 -0.7069 0.7069 0.7073 -170.094 234.0604)" width="24" height="16"/>
	</g>
</g>
<g>
	<g>
		<path d="M56.001,272.002c-4.417-0.001-7.999,3.579-8,7.996c0,0.001,0,0.003,0,0.004v64h16v-56h128v-16H56.001z"/>
	</g>
</g>
<g>
	<g>
		<path d="M424.005,272.002c-0.001,0-0.003,0-0.004,0h-136v16h128v56h16v-64C432.002,275.585,428.422,272.003,424.005,272.002z"/>
	</g>
</g>
<g>
	<g>
		<path d="M472.005,360.002c-0.001,0-0.003,0-0.004,0h-96c-4.417-0.001-7.999,3.579-8,7.996c0,0.001,0,0.003,0,0.004v104
			c-0.001,4.417,3.579,7.999,7.996,8c0.001,0,0.003,0,0.004,0h96c4.417,0.001,7.999-3.579,8-7.996c0-0.001,0-0.003,0-0.004v-104
			C480.002,363.585,476.422,360.003,472.005,360.002z M416.001,376.002h16v16c0,4.418-3.582,8-8,8s-8-3.582-8-8V376.002z
			 M384.001,376.002h16v16c0,4.418-3.582,8-8,8s-8-3.582-8-8V376.002z M464.001,464.002h-80v-16h80V464.002z M464.001,432.002h-80
			v-17.475c8.257,3.091,17.551,1.244,24-4.768c9.043,8.323,22.957,8.323,32,0c6.449,6.011,15.743,7.858,24,4.768V432.002z
			 M464.001,392.002c0,4.418-3.582,8-8,8s-8-3.582-8-8v-16h16V392.002z"/>
	</g>
</g>
<g>
	<g>
		<path d="M104.005,360.002c-0.001,0-0.003,0-0.004,0h-96c-4.417-0.001-7.999,3.579-8,7.996c0,0.001,0,0.003,0,0.004v104
			c-0.001,4.417,3.579,7.999,7.996,8c0.001,0,0.003,0,0.004,0h96c4.417,0.001,7.999-3.579,8-7.996c0-0.001,0-0.003,0-0.004v-104
			C112.002,363.585,108.422,360.003,104.005,360.002z M48.001,376.002h16v16c0,4.418-3.582,8-8,8s-8-3.582-8-8V376.002z
			 M16.001,376.002h16v16c0,4.418-3.582,8-8,8s-8-3.582-8-8V376.002z M96.001,464.002h-80v-16h80V464.002z M96.001,432.002h-80
			v-17.475c8.257,3.091,17.551,1.244,24-4.768c9.043,8.323,22.957,8.323,32,0c6.449,6.011,15.743,7.858,24,4.768V432.002z
			 M96.001,392.002c0,4.418-3.582,8-8,8s-8-3.582-8-8v-16h16V392.002z"/>
	</g>
</g>
<g>
</g>
<g>
</g>
<g>
</g>
<g>
</g>
<g>
</g>
<g>
</g>
<g>
</g>
<g>
</g>
<g>
</g>
<g>
</g>
<g>
</g>
<g>
</g>
<g>
</g>
<g>
</g>
<g>
</g>
</svg>
