<svg height="496pt" viewBox="0 0 496 496" width="496pt" xmlns="http://www.w3.org/2000/svg"><path d="m392 48c-30.878906 0-56 25.121094-56 56s25.121094 56 56 56 56-25.121094 56-56-25.121094-56-56-56zm0 96c-22.054688 0-40-17.945312-40-40s17.945312-40 40-40 40 17.945312 40 40-17.945312 40-40 40zm0 0"/><path d="m496 73.753906-19.328125-4.824218 10.25-17.074219-42.777344-42.777344-17.074219 10.25-4.824218-19.328125h-60.492188l-4.824218 19.328125-17.074219-10.25-42.777344 42.777344 10.25 17.074219-19.328125 4.824218v60.492188l19.328125 4.824218-10.25 17.074219 42.777344 42.777344 17.074219-10.25 4.824218 19.328125h60.492188l4.824218-19.328125 17.074219 10.25 42.777344-42.777344-10.25-17.074219 19.328125-4.824218zm-16 48-15.59375 3.894532-4.269531 1.648437-3.730469 9.101563 10.371094 17.28125-25.105469 25.105468-17.265625-10.371094-9.773438 4.019532-4.878906 19.566406h-35.507812l-4.886719-19.566406-9.773437-4.019532-17.265626 10.371094-25.105468-25.105468 10.371094-17.28125-4-9.75-19.585938-4.894532v-35.507812l19.566406-4.886719 4.019532-9.773437-10.371094-17.265626 25.105468-25.105468 17.265626 10.371094 9.773437-4.019532 4.886719-19.566406h35.507812l4.886719 19.566406 9.773437 4.019532 17.265626-10.371094 25.105468 25.105468-10.371094 17.265626 4.019532 9.773437 19.566406 4.886719zm0 0"/><path d="m160 424c0 22.054688 17.945312 40 40 40s40-17.945312 40-40-17.945312-40-40-40-40 17.945312-40 40zm64 0c0 13.230469-10.769531 24-24 24s-24-10.769531-24-24 10.769531-24 24-24 24 10.769531 24 24zm0 0"/><path d="m264.910156 16h-22.734375l-80.007812 248.03125-25.617188.015625c-11.773437-24.503906-36.542969-40.046875-64.550781-40.046875-39.695312 0-72 32.304688-72 72s32.304688 72 72 72c8.695312 0 57.128906-21.425781 90.59375-36.71875-15.050781 36.070312-34.59375 84.511719-34.59375 92.71875 0 39.695312 32.304688 72 72 72s72-32.304688 72-72c0-28.007812-15.542969-52.769531-40.046875-64.542969l.007813-9.960937 248.039062-96.015625v-22.390625l-241.160156 26.070312zm-21.222656 47.40625-26.871094 248.59375h-16.816406v-19.3125l-22.886719-22.886719zm-227.6875 232.59375c0-30.878906 25.121094-56 56-56 23.257812 0 43.609375 13.71875 51.839844 34.953125l1.984375 5.109375 38.894531-.023438 19.28125 19.28125v12.679688h-17.761719l-1.589843.734375c-40.433594 18.625-86.289063 38.410156-92.648438 39.265625-30.878906 0-56-25.121094-56-56zm240 128c0 30.878906-25.121094 56-56 56s-56-25.121094-56.015625-55.65625c.785156-6.574219 19.230469-53.230469 37.328125-96.34375h34.679688l-.046876 42.175781 5.109376 1.984375c21.226562 8.230469 34.945312 28.582032 34.945312 51.839844zm185.078125-172.609375-209.09375 80.9375.015625-11.886719 5.078125-47zm0 0"/><path d="m72 256c-22.054688 0-40 17.945312-40 40s17.945312 40 40 40 40-17.945312 40-40-17.945312-40-40-40zm0 64c-13.230469 0-24-10.769531-24-24s10.769531-24 24-24 24 10.769531 24 24-10.769531 24-24 24zm0 0"/></svg>