<svg id="Layer_5" enable-background="new 0 0 64 64" height="512" viewBox="0 0 64 64" width="512" xmlns="http://www.w3.org/2000/svg"><path d="m32 31c-1.103 0-2-.897-2-2h-2c0 1.858 1.28 3.411 3 3.858v2.142h2v-2h3v-4c0-2.206-1.794-4-4-4-1.103 0-2-.897-2-2v-2h2c1.103 0 2 .897 2 2h2c0-1.858-1.28-3.411-3-3.858v-2.142h-2v2h-3v4c0 2.206 1.794 4 4 4 1.103 0 2 .897 2 2v2z"/><path d="m32.858 37h-.858v2h.858c.42 0 .843-.023 1.255-.07l-.226-1.987c-.338.037-.681.057-1.029.057z"/><path d="m36.311 38.453c4.533-1.481 7.623-5.676 7.688-10.439l-2-.027c-.054 3.908-2.589 7.35-6.31 8.565z"/><path d="m14.586 16 3.767 3.767c-1.525 2.399-2.353 5.179-2.353 8.091 0 5.624 3.088 10.531 7.651 13.142h-2.473l-2.595 4.078-8.124-8.124h-5.459v2h4.631l7.852 7.852-2.669 4.194h34.371l-2.669-4.194 7.852-7.852h4.632v-2h-5.459l-8.124 8.124-2.595-4.078h-2.473c4.563-2.611 7.651-7.518 7.651-13.142 0-2.912-.828-5.692-2.353-8.091l3.767-3.767h6l7.614-7.614-6.178-1.236-1.235-6.179-7.615 7.615v6l-3.546 3.546c-.283-.336-.575-.666-.89-.981l-5.306-5.306 6.508-10.845h-4.766c-1.619 0-2.357 1.476-2.896 2.553-.424.847-.752 1.447-1.107 1.447-.356 0-.684-.6-1.108-1.448-.539-1.077-1.277-2.552-2.896-2.552-1.618 0-2.355 1.476-2.893 2.553-.423.847-.75 1.447-1.104 1.447s-.68-.6-1.104-1.447c-.538-1.077-1.275-2.553-2.892-2.553h-4.766l6.507 10.845-5.306 5.306c-.314.314-.607.644-.89.981l-3.545-3.546v-6l-7.614-7.614-1.236 6.178-6.178 1.236 7.614 7.614zm35.414-6.586 4.386-4.386.764 3.822 3.821.765-4.385 4.385h-3.172l3.293-3.293-1.414-1.414-3.293 3.293zm-8.276 33.586 3.818 6h-27.084l3.818-6h8.866 1.716zm-17.724-40c.354 0 .68.6 1.104 1.447.538 1.077 1.275 2.553 2.892 2.553 1.618 0 2.355-1.476 2.893-2.553.423-.847.751-1.447 1.104-1.447.355 0 .683.6 1.107 1.447.54 1.077 1.278 2.553 2.897 2.553s2.356-1.475 2.896-2.552c.423-.848.751-1.448 1.107-1.448h1.234l-4.8 8h-8.868l-4.8-8zm-2.151 15.565 5.565-5.565h9.172l5.565 5.565c.314.314.61.642.888.982l-3.039 3.039v-2.586h-2v6h6v-2h-2.586l2.777-2.777c1.171 1.993 1.809 4.262 1.809 6.635 0 7.246-5.896 13.142-13.142 13.142h-1.716c-7.246 0-13.142-5.896-13.142-13.142 0-2.372.638-4.642 1.809-6.635l2.777 2.777h-2.586v2h6v-6h-2v2.586l-3.039-3.039c.278-.34.574-.668.888-.982zm-12.999-9.715.765-3.821 4.385 4.385v3.172l-3.293-3.293-1.414 1.414 3.293 3.293h-3.172l-4.386-4.386z"/><path d="m47 57h2v2h-2z"/><path d="m43 57h2v2h-2z"/><path d="m39 57h2v2h-2z"/><path d="m23 45h2v2h-2z"/><path d="m27 45h2v2h-2z"/><path d="m31 45h2v2h-2z"/><path d="m49.495 53h-34.99l-4.045-4.045h-5.46v2h4.631l3.185 3.185-5.638 8.86h49.644l-5.638-8.86 3.185-3.185h4.631v-2h-5.459zm-38.673 8 3.818-6h34.72l3.818 6z"/><path d="m61 49h2v2h-2z"/><path d="m53 45h10v2h-10z"/><path d="m61 37h2v2h-2z"/><path d="m53 33h10v2h-10z"/><path d="m1 49h2v2h-2z"/><path d="m1 45h10v2h-10z"/><path d="m1 37h2v2h-2z"/><path d="m1 33h10v2h-10z"/></svg>