<svg id="Layer_5" enable-background="new 0 0 64 64" height="512" viewBox="0 0 64 64" width="512" xmlns="http://www.w3.org/2000/svg"><path d="m27 28c0-6.065-4.935-11-11-11s-11 4.935-11 11 4.935 11 11 11 11-4.935 11-11zm-16.644 7h11.288c-1.545 1.248-3.508 2-5.644 2s-4.099-.752-5.644-2zm8.644-8h2v6h-2zm-2 6h-2v-10h2zm-4 0h-2v-4h2zm3-14c4.962 0 9 4.038 9 9 0 1.849-.562 3.569-1.522 5h-.478v-8h-4v-4h-6v6h-4v6h-.478c-.96-1.431-1.522-3.151-1.522-5 0-4.962 4.038-9 9-9z"/><path d="m54.9 27h-17.9v-17.9l-1.258-.068c-.246-.016-.492-.032-.742-.032-4.958 0-9.659 1.824-13.333 5.12-1.75-.717-3.661-1.12-5.667-1.12-8.271 0-15 6.729-15 15 0 6.867 4.644 12.657 10.952 14.43l-.943 15.39c-.006.099-.009.199-.009.299 0 2.691 2.19 4.881 4.881 4.881h.237c2.692 0 4.882-2.19 4.882-4.881 0-.1-.003-.199-.009-.298l-.943-15.391c.037-.01.075-.018.111-.029 3.794 4.203 9.151 6.599 14.841 6.599 11.028 0 20-8.972 20-20 0-.25-.016-.496-.032-.742zm-19.9-16v16h-4.051c-.337-5.076-3.202-9.46-7.352-11.911 3.212-2.639 7.206-4.089 11.403-4.089zm-32 17c0-7.168 5.832-13 13-13s13 5.832 13 13-5.832 13-13 13-13-5.832-13-13zm15.995 29.943c.003.058.005.117.005.176 0 1.589-1.292 2.881-2.881 2.881h-.237c-1.59 0-2.882-1.292-2.882-2.881 0-.059.002-.117.005-.176l.925-15.103c.679.094 1.366.16 2.07.16s1.391-.066 2.07-.16zm3.212-16.304c4.89-2.235 8.368-7.014 8.742-12.639h4.051v18c-4.849 0-9.42-1.944-12.793-5.361zm14.793 5.243v-17.882h16c0 9.249-7.013 16.883-16 17.882z"/><path d="m56.094 19.319 1.896-.638c-.241-.716-.526-1.424-.847-2.106l-1.81.851c.289.613.545 1.25.761 1.893z"/><path d="m45.319 6.01-.639 1.896c3.966 1.336 7.382 4.043 9.62 7.624l1.696-1.06c-2.482-3.972-6.274-6.976-10.677-8.46z"/><path d="m62.999 23.957c-.528-12.344-10.612-22.428-22.956-22.956l-1.043-.045v24.044h24.044zm-21.999-.957v-19.931c10.491.956 18.975 9.44 19.931 19.931z"/><path d="m39 31h8v2h-8z"/><path d="m39 35h8v2h-8z"/><path d="m39 39h8v2h-8z"/><path d="m43 19h2v2h-2z"/><path d="m47 19h2v2h-2z"/><path d="m51 19h2v2h-2z"/><path d="m15 45h2v2h-2z"/><path d="m15 49h2v2h-2z"/><path d="m15 53h2v2h-2z"/></svg>