<?xml version="1.0" encoding="iso-8859-1"?>
<!-- Generator: Adobe Illustrator 19.0.0, SVG Export Plug-In . SVG Version: 6.00 Build 0)  -->
<svg version="1.1" id="Layer_1" xmlns="http://www.w3.org/2000/svg" xmlns:xlink="http://www.w3.org/1999/xlink" x="0px" y="0px"
	 viewBox="0 0 496 496" style="enable-background:new 0 0 496 496;" xml:space="preserve">
<g>
	<g>
		<g>
			<path d="M432,368H0v16h432c26.472,0,48,21.528,48,48s-21.528,48-48,48H0v16h432c35.288,0,64-28.712,64-64
				C496,396.712,467.288,368,432,368z"/>
			<path d="M464,432c0-17.648-14.352-32-32-32s-32,14.352-32,32s14.352,32,32,32S464,449.648,464,432z M416,432
				c0-8.824,7.176-16,16-16c8.824,0,16,7.176,16,16c0,8.824-7.176,16-16,16C423.176,448,416,440.824,416,432z"/>
			<path d="M384,432c0-17.648-14.352-32-32-32s-32,14.352-32,32s14.352,32,32,32S384,449.648,384,432z M336,432
				c0-8.824,7.176-16,16-16c8.824,0,16,7.176,16,16c0,8.824-7.176,16-16,16C343.176,448,336,440.824,336,432z"/>
			<path d="M304,432c0-17.648-14.352-32-32-32s-32,14.352-32,32s14.352,32,32,32S304,449.648,304,432z M256,432
				c0-8.824,7.176-16,16-16c8.824,0,16,7.176,16,16c0,8.824-7.176,16-16,16C263.176,448,256,440.824,256,432z"/>
			<path d="M224,432c0-17.648-14.352-32-32-32s-32,14.352-32,32s14.352,32,32,32S224,449.648,224,432z M176,432
				c0-8.824,7.176-16,16-16c8.824,0,16,7.176,16,16c0,8.824-7.176,16-16,16C183.176,448,176,440.824,176,432z"/>
			<path d="M144,432c0-17.648-14.352-32-32-32s-32,14.352-32,32s14.352,32,32,32S144,449.648,144,432z M96,432
				c0-8.824,7.176-16,16-16c8.824,0,16,7.176,16,16c0,8.824-7.176,16-16,16C103.176,448,96,440.824,96,432z"/>
			<path d="M64,432c0-17.648-14.352-32-32-32S0,414.352,0,432s14.352,32,32,32S64,449.648,64,432z M16,432c0-8.824,7.176-16,16-16
				s16,7.176,16,16c0,8.824-7.176,16-16,16S16,440.824,16,432z"/>
			<path d="M403.72,51.28c-1.16-1.12-2.432-2.104-3.72-3.072V0h-16v40.808C381.416,40.28,378.736,40,376,40
				c-2.736,0-5.416,0.28-8,0.808V0h-16v48.208c-1.288,0.976-2.56,1.952-3.72,3.072L256,99.136v102.752L283.056,256H304v48h144v-48
				h20.944L496,201.888V99.136L403.72,51.28z M376,56c13.232,0,24,10.768,24,24s-10.768,24-24,24s-24-10.768-24-24
				S362.768,56,376,56z M304,160h-16v16h16v16h-16v16h16v32h-11.056L272,198.112v-89.248l64.464-33.44
				C336.288,76.944,336,78.432,336,80c0,12.408,5.8,23.376,14.696,30.72L304,130.728V160z M432,256v32H320v-32v-64h112V256z
				 M432,176H320v-34.728l50.848-21.792c1.704,0.224,3.392,0.52,5.152,0.52s3.448-0.296,5.152-0.52L432,141.272V176z M480,198.112
				L459.056,240H448v-32h16v-16h-16v-16h16v-16h-16v-29.272l-46.696-20.008C410.2,103.376,416,92.408,416,80
				c0-1.568-0.288-3.056-0.464-4.576L480,108.864V198.112z"/>
			<path d="M48,304v48h144v-48h20.944L240,249.888V147.136L147.72,99.28c-1.16-1.12-2.44-2.096-3.72-3.072V0h-16v88.808
				C125.416,88.28,122.736,88,120,88c-2.736,0-5.416,0.28-8,0.808V0H96v96.208c-1.288,0.976-2.56,1.952-3.72,3.072L0,147.136
				v102.752L27.056,304H48z M176,304v32H64v-32v-64h112V304z M160,128c0-1.568-0.288-3.056-0.464-4.576L224,156.864v89.248
				L203.056,288H192v-32h16v-16h-16v-16h16v-16h-16v-29.272l-46.696-20.008C154.2,151.376,160,140.408,160,128z M176,189.272V224H64
				v-34.728l50.848-21.792c1.704,0.224,3.392,0.52,5.152,0.52s3.448-0.296,5.152-0.52L176,189.272z M120,104
				c13.232,0,24,10.768,24,24s-10.768,24-24,24s-24-10.768-24-24S106.768,104,120,104z M16,156.864l64.464-33.44
				C80.288,124.944,80,126.432,80,128c0,12.408,5.8,23.376,14.696,30.72L48,178.728V208H32v16h16v16H32v16h16v32H36.944L16,246.112
				V156.864z"/>
			<rect x="400" y="256" width="16" height="16"/>
			<rect x="144" y="304" width="16" height="16"/>
		</g>
	</g>
</g>
<g>
</g>
<g>
</g>
<g>
</g>
<g>
</g>
<g>
</g>
<g>
</g>
<g>
</g>
<g>
</g>
<g>
</g>
<g>
</g>
<g>
</g>
<g>
</g>
<g>
</g>
<g>
</g>
<g>
</g>
</svg>
