<svg id="Layer_5" enable-background="new 0 0 64 64" height="512" viewBox="0 0 64 64" width="512" xmlns="http://www.w3.org/2000/svg"><path d="m18 41c1.103 0 2 .897 2 2h2c0-1.858-1.28-3.411-3-3.858v-2.142h-2v2h-3v4c0 2.206 1.794 4 4 4 1.103 0 2 .897 2 2v2h-2c-1.103 0-2-.897-2-2h-2c0 1.858 1.28 3.411 3 3.858v2.142h2v-2h3v-4c0-2.206-1.794-4-4-4-1.103 0-2-.897-2-2v-2z"/><path d="m18 29c-9.374 0-17 7.626-17 17s7.626 17 17 17 17-7.626 17-17-7.626-17-17-17zm0 32c-8.271 0-15-6.729-15-15s6.729-15 15-15 15 6.729 15 15-6.729 15-15 15z"/><path d="m18 33c-7.168 0-13 5.832-13 13s5.832 13 13 13 13-5.832 13-13-5.832-13-13-13zm0 24c-6.065 0-11-4.935-11-11s4.935-11 11-11 11 4.935 11 11-4.935 11-11 11z"/><path d="m25 45h2v2h-2z"/><path d="m9 45h2v2h-2z"/><path d="m26.293 28.293 1.414 1.414 19.707-19.707-3.318-3.318 15.702-2.48-2.48 15.702-3.318-3.318-13.707 13.707 1.414 1.414 12.293-12.293 4.682 4.682 3.52-22.298-22.298 3.52 4.682 4.682z"/><path d="m37.586 32h2.828v2h-2.828z" transform="matrix(.707 -.707 .707 .707 -11.912 37.243)"/><path d="m34.586 35h2.828v2h-2.828z" transform="matrix(.707 -.707 .707 .707 -14.912 36)"/><path d="m63.216 49.217-2.549-15.298-4.167 4.167-3.55-3.55c-2.729-2.729-7.17-2.729-9.899 0l-4.757 4.757 1.414 1.414 4.757-4.757c1.949-1.949 5.122-1.949 7.071 0l4.964 4.964 2.833-2.833 1.451 8.703-8.703-1.451 2.833-2.833-4.793-4.793c-1.17-1.17-3.072-1.17-4.242 0l-4.586 4.586 1.414 1.414 4.586-4.586c.378-.377 1.036-.377 1.414 0l3.379 3.379-4.167 4.167z"/><path d="m21.5 11.914 3.379 3.379c.188.189.292.44.292.707s-.104.518-.292.707l-4.586 4.586 1.414 1.414 4.586-4.586c1.17-1.169 1.17-3.073 0-4.242l-4.793-4.793-2.833 2.833-1.451-8.703 8.703 1.451-2.833 2.833 4.964 4.964c1.949 1.95 1.949 5.122 0 7.071l-4.757 4.757 1.414 1.414 4.757-4.757c2.729-2.729 2.729-7.17 0-9.899l-3.55-3.55 4.167-4.167-15.298-2.549 2.55 15.297z"/><path d="m38.586 44h2.828v2h-2.828z" transform="matrix(.707 -.707 .707 .707 -20.104 41.465)"/><path d="m17.586 23h2.828v2h-2.828z" transform="matrix(.707 -.707 .707 .707 -11.406 20.465)"/><path d="m37.379 21.672h1.9v2h-1.9z" transform="matrix(.707 -.707 .707 .707 -4.805 33.743)"/><path d="m34.536 24.464h2v2h-2z" transform="matrix(.707 -.707 .707 .707 -7.598 32.586)"/><path d="m31.707 27.293h2v2h-2z" transform="matrix(.707 -.707 .707 .707 -10.427 31.414)"/><path d="m43.707 21.293h2v2h-2z" transform="matrix(.707 -.707 .707 .707 -2.669 38.142)"/><path d="m46.536 18.464h2v2h-2z" transform="matrix(.707 -.707 .707 .707 .16 39.314)"/><path d="m49.379 15.672h1.9v2h-1.9z" transform="matrix(.707 -.707 .707 .707 2.952 40.471)"/></svg>