<svg id="Layer_5" enable-background="new 0 0 64 64" height="512" viewBox="0 0 64 64" width="512" xmlns="http://www.w3.org/2000/svg"><path d="m32 35c-.552 0-1-.449-1-1h-2c0 1.302.839 2.402 2 2.816v2.184h2v-2h2v-3c0-1.654-1.346-3-3-3-.552 0-1-.449-1-1v-1h1c.552 0 1 .449 1 1h2c0-1.302-.839-2.402-2-2.816v-2.184h-2v2h-2v3c0 1.654 1.346 3 3 3 .552 0 1 .449 1 1v1z"/><path d="m32 43c6.065 0 11-4.935 11-11 0-1.404-.274-2.742-.756-3.977l9.238-12.01c.334-.432.518-.973.518-1.521 0-1.374-1.118-2.492-2.492-2.492-.547 0-1.087.184-1.52.517l-12.01 9.239c-1.236-.482-2.574-.756-3.978-.756-6.065 0-11 4.935-11 11 0 1.404.274 2.742.756 3.977l-9.238 12.01c-.334.432-.518.973-.518 1.521 0 1.374 1.118 2.492 2.492 2.492.547 0 1.087-.184 1.52-.517l12.01-9.239c1.236.482 2.574.756 3.978.756zm17.208-28.898c.299-.23.792.01.792.39 0 .108-.036.215-.103.3l-8.66 11.257c-.851-1.316-1.972-2.437-3.288-3.288zm-17.208 8.898c4.963 0 9 4.038 9 9s-4.037 9-9 9-9-4.038-9-9 4.037-9 9-9zm-17.208 26.898c-.298.23-.792-.01-.792-.39 0-.108.036-.215.103-.3l8.66-11.257c.851 1.316 1.972 2.437 3.288 3.288z"/><path d="m37 31h2v2h-2z"/><path d="m25 31h2v2h-2z"/><path d="m63 8c0-3.86-3.141-7-7-7-3.252 0-5.986 2.233-6.768 5.245-4.931-3.31-10.86-5.245-17.232-5.245-17.094 0-31 13.907-31 31s13.906 31 31 31 31-13.907 31-31c0-6.372-1.935-12.301-5.245-17.232 3.011-.782 5.245-3.515 5.245-6.768zm-7-5c2.757 0 5 2.243 5 5 0 2.608-2.015 4.732-4.566 4.956-1.57-2.01-3.381-3.82-5.39-5.39.224-2.551 2.348-4.566 4.956-4.566zm-24 58c-15.99 0-29-13.009-29-29s13.01-29 29-29 29 13.009 29 29-13.01 29-29 29z"/><path d="m23.089 19.326c.354-.354.549-.825.549-1.326s-.194-.972-.549-1.325l-3.382-3.382-1.414 1.414 3.005 3.005-4.469-1.49c-.677-.226-1.411-.053-1.918.452-.354.354-.549.825-.549 1.326s.194.972.549 1.325l3.382 3.382 1.414-1.414-3.005-3.005 4.469 1.49c.677.224 1.411.053 1.918-.452z"/><path d="m46.293 48.292c-.162.162-.424.162-.586 0l-1.414 1.415c.471.47 1.089.705 1.707.705s1.236-.235 1.707-.706l2-2c.456-.456.707-1.062.707-1.708s-.251-1.251-.707-1.708c-.941-.94-2.473-.94-3.414 0l-2 2c-.162.162-.424.162-.586 0-.105-.105-.121-.229-.121-.292s.016-.187.121-.293l2-2c.162-.162.424-.162.586 0l1.414-1.415c-.941-.94-2.473-.94-3.414 0l-2 2c-.456.456-.707 1.062-.707 1.708s.251 1.251.707 1.708c.941.94 2.473.94 3.414 0l2-2c.162-.162.424-.162.586 0 .105.105.121.229.121.292s-.016.187-.121.293z"/><path d="m32 7c5.2 0 10.19 1.588 14.432 4.592l1.156-1.632c-4.581-3.245-9.972-4.96-15.588-4.96-14.888 0-27 12.112-27 27 0 5.617 1.715 11.008 4.96 15.588l1.633-1.156c-3.005-4.241-4.593-9.231-4.593-14.432 0-13.785 11.215-25 25-25z"/><path d="m57 32c0 13.785-11.215 25-25 25-5.2 0-10.19-1.588-14.432-4.592l-1.156 1.632c4.581 3.245 9.972 4.96 15.588 4.96 14.888 0 27-12.112 27-27 0-5.617-1.715-11.008-4.96-15.588l-1.633 1.156c3.005 4.241 4.593 9.231 4.593 14.432z"/></svg>