<?xml version="1.0" encoding="iso-8859-1"?>
<!-- Generator: Adobe Illustrator 19.0.0, SVG Export Plug-In . SVG Version: 6.00 Build 0)  -->
<svg version="1.1" id="Capa_1" xmlns="http://www.w3.org/2000/svg" xmlns:xlink="http://www.w3.org/1999/xlink" x="0px" y="0px"
	 viewBox="0 0 448 448" style="enable-background:new 0 0 448 448;" xml:space="preserve">
<g>
	<g>
		<path d="M146.863,319.2c-22.4-4-44.8,13.6-49.6,40c-2.4,12.8,0,24.8,5.6,35.2c6.4,10.4,16,17.6,27.2,20c2.4,0,4.8,0.8,6.4,0.8
			c8.8,0,17.6-3.2,25.6-9.6c8.8-7.2,15.2-18.4,17.6-31.2C184.463,348,170.063,323.2,146.863,319.2z M165.263,372
			c-1.6,8.8-6.4,16.8-12.8,22.4c-6.4,4.8-13.6,7.2-20,5.6c-7.2-1.6-12.8-5.6-16.8-12.8c-4-7.2-5.6-16.8-4-25.6
			c3.2-16.8,16-28.8,28.8-28.8c1.6,0,2.4,0,4,0C158.863,336.8,168.463,353.6,165.263,372z"/>
	</g>
</g>
<g>
	<g>
		<path d="M350.063,359.2c-4.8-26.4-27.2-44-49.6-40c-11.2,2.4-20.8,8.8-27.2,20c-5.6,10.4-8,23.2-5.6,35.2
			c2.4,12.8,8.8,24,17.6,31.2c8,6.4,16.8,9.6,25.6,9.6c2.4,0,4.8,0,6.4-0.8c11.2-2.4,20.8-8.8,27.2-20
			C350.063,384,352.463,371.2,350.063,359.2z M332.463,388c-4,7.2-9.6,11.2-16.8,12.8s-14.4-0.8-20-5.6
			c-6.4-5.6-11.2-13.6-12.8-22.4s0-18.4,4-25.6s9.6-11.2,16.8-12.8c1.6,0,2.4,0,4,0c13.6,0,26.4,12,28.8,28.8
			C338.063,371.2,336.463,380,332.463,388z"/>
	</g>
</g>
<g>
	<g>
		<path d="M378.063,354.4c-4-21.6-15.2-40-30.4-52.8c-16-12.8-34.4-18.4-52.8-15.2c-4,0.8-7.2,1.6-11.2,3.2l-29.6-50.4l80-138.4
			c6.4-10.4,12-37.6-14.4-61.6c-1.6-1.6-4-2.4-5.6-1.6c-2.4,0-4,1.6-4.8,3.2l-85.6,146.4l-84.8-146.4c-0.8-1.6-3.2-3.2-4.8-3.2
			c-2.4,0-4,0-5.6,1.6c-27.2,24-21.6,50.4-14.4,61.6l80,139.2l-29.6,51.2c-4-1.6-7.2-2.4-11.2-3.2c-37.6-6.4-75.2,23.2-83.2,67.2
			c-4,20.8-0.8,42.4,9.6,60c10.4,17.6,25.6,29.6,44.8,32.8c3.2,0,6.4,0,10.4,0c15.2,0,29.6-5.6,42.4-16
			c15.2-12.8,25.6-31.2,29.6-52.8c3.2-16.8,1.6-34.4-4.8-49.6l21.6-37.6l21.6,37.6c-6.4,15.2-8,32.8-4.8,49.6
			c4,20.8,14.4,40,29.6,52.8c12.8,10.4,27.2,16,42.4,16c4,0,7.2,0,11.2-0.8c18.4-3.2,34.4-15.2,44.8-32.8
			C378.063,396.8,382.063,376,378.063,354.4z M315.663,56.8c16,19.2,5.6,36,5.6,36.8l-75.2,132l-13.6-23.2L315.663,56.8z
			 M187.663,325.6c-0.8,2.4-1.6,4.8,0,6.4c6.4,13.6,8,28.8,4.8,44.8c-3.2,17.6-12,33.6-24.8,44c-12,10.4-27.2,14.4-41.6,12
			c-14.4-2.4-26.4-12-34.4-25.6c-8-14.4-11.2-32-8-49.6c6.4-36,36-61.6,66.4-56c4.8,0.8,8.8,2.4,13.6,4.8c3.2,1.6,8,0.8,9.6-2.4
			l28.8-49.6l13.6,24L187.663,325.6z M355.663,407.2c-8,13.6-20,23.2-34.4,25.6c-14.4,2.4-28.8-1.6-41.6-12
			c-12.8-10.4-21.6-26.4-24.8-44c-3.2-15.2-0.8-31.2,4.8-44.8c0.8-2.4,0.8-4.8,0-6.4l-133.6-232.8c-0.8-0.8-10.4-17.6,5.6-36.8
			l142.4,247.2c1.6,3.2,6.4,4.8,9.6,2.4c4-2.4,8.8-4,13.6-4.8c14.4-2.4,28.8,1.6,41.6,12c12.8,10.4,21.6,26.4,24.8,44
			C366.063,375.2,363.663,392.8,355.663,407.2z"/>
	</g>
</g>
<g>
	<g>
		<circle cx="222.063" cy="236.8" r="5.6"/>
	</g>
</g>
<g>
	<g>
		<path d="M223.663,132c-4,0-7.2,3.2-7.2,7.2v22.4c0,4,3.2,7.2,7.2,7.2s7.2-3.2,7.2-7.2v-22.4
			C230.863,135.2,227.663,132,223.663,132z"/>
	</g>
</g>
<g>
	<g>
		<path d="M223.663,88c-4,0-7.2,3.2-7.2,7.2v22.4c0,4,3.2,7.2,7.2,7.2s7.2-3.2,7.2-7.2V95.2C230.863,91.2,227.663,88,223.663,88z"/>
	</g>
</g>
<g>
	<g>
		<path d="M223.663,44c-4,0-7.2,3.2-7.2,7.2v22.4c0,4,3.2,7.2,7.2,7.2s7.2-3.2,7.2-7.2V51.2C230.863,47.2,227.663,44,223.663,44z"/>
	</g>
</g>
<g>
	<g>
		<path d="M223.663,0c-4,0-7.2,3.2-7.2,7.2v22.4c0,4,3.2,7.2,7.2,7.2s7.2-3.2,7.2-7.2V7.2C230.863,3.2,227.663,0,223.663,0z"/>
	</g>
</g>
<g>
</g>
<g>
</g>
<g>
</g>
<g>
</g>
<g>
</g>
<g>
</g>
<g>
</g>
<g>
</g>
<g>
</g>
<g>
</g>
<g>
</g>
<g>
</g>
<g>
</g>
<g>
</g>
<g>
</g>
</svg>
