<?xml version="1.0" encoding="iso-8859-1"?>
<!-- Generator: Adobe Illustrator 19.0.0, SVG Export Plug-In . SVG Version: 6.00 Build 0)  -->
<svg version="1.1" id="Capa_1" xmlns="http://www.w3.org/2000/svg" xmlns:xlink="http://www.w3.org/1999/xlink" x="0px" y="0px"
	 viewBox="0 0 405.661 405.661" style="enable-background:new 0 0 405.661 405.661;" xml:space="preserve">
<g>
	<g>
		<path d="M389.661,186.83h-8v-20c0-8.8-6.4-16-15.2-16h-16c-4.8-78.4-69.6-140-148-140s-143.2,61.6-147.2,139.2h-16
			c-8,0-15.2,7.2-15.2,16v20h-8c-8.8,0-16,7.2-16,16v30.4c-0.8,10.4,6.4,17.6,15.2,17.6h8v20c0,8.8,6.4,16,15.2,16h48
			c8,0,15.2-7.2,15.2-16v-103.2c0-8.8-6.4-16-15.2-16h-15.2c4-69.6,61.6-124,131.2-124s127.2,54.4,131.2,123.2h-15.2
			c-8,0-15.2,7.2-15.2,16v103.2c0,8.8,6.4,16,15.2,16h15.2c-2.4,19.2-12.8,64.8-68,70.4v-6.4c0-8.8-7.2-16-16-16h-65.6
			c-8.8,0-16,7.2-16,16v29.6c0,8.8,7.2,16,16,16h65.6c8.8,0,16-7.2,16-16v-7.2c68.8-5.6,81.6-64.8,84-86.4h16.8
			c8,0,15.2-7.2,15.2-16v-20h8c8.8,0,16-7.2,16-16v-30.4C405.661,194.03,398.461,186.83,389.661,186.83z M24.061,233.23h-8.8v-30.4
			h8.8V233.23z M85.661,166.03c0,0,0,0.313,0,0.352V270.03h-45.6v-104H85.661z M249.661,380.43c0,0-0.313,0-0.352,0h-65.248v-30.4
			h65.6V380.43z M364.861,270.83h-45.6v-104h45.6V270.83z M389.661,233.23h-8.8v-30.4h8.8V233.23z"/>
	</g>
</g>
<g>
</g>
<g>
</g>
<g>
</g>
<g>
</g>
<g>
</g>
<g>
</g>
<g>
</g>
<g>
</g>
<g>
</g>
<g>
</g>
<g>
</g>
<g>
</g>
<g>
</g>
<g>
</g>
<g>
</g>
</svg>
