<svg id="Layer_1" data-name="Layer 1" xmlns="http://www.w3.org/2000/svg" xmlns:xlink="http://www.w3.org/1999/xlink" viewBox="0 0 1079.49 929.54"><defs><style>.cls-1{fill:url(#linear-gradient);}.cls-2{fill:none;}.cls-2,.cls-3{stroke:#fff;stroke-miterlimit:10;}.cls-3{fill:#fff;}</style><linearGradient id="linear-gradient" x1="764.35" y1="21.21" x2="368.77" y2="706.38" gradientUnits="userSpaceOnUse"><stop offset="0" stop-color="#14e8d5"/><stop offset="0.17" stop-color="#1bb9bf"/><stop offset="0.36" stop-color="#218dab"/><stop offset="0.54" stop-color="#266b9b"/><stop offset="0.71" stop-color="#29528f"/><stop offset="0.87" stop-color="#2b4388"/><stop offset="1" stop-color="#2c3e86"/></linearGradient></defs><title>logo_no_text</title><g id="Plane_blue" data-name="Plane blue"><polygon class="cls-1" points="1078.51 368.22 1015.43 579.4 957.83 601.34 752.13 927.72 604.03 683.62 461.41 691.85 335.25 639.74 302.33 527.29 104.86 445.01 0.64 373.7 85.67 203.66 285.88 28.13 576.6 0.7 861.84 77.49 1078.51 368.22"/><polygon class="cls-2" points="104.86 445.01 0.64 373.7 85.67 203.66 104.86 445.01"/><polygon class="cls-2" points="752.13 927.72 604.03 683.62 749.39 667.17 752.13 927.72"/><polygon class="cls-2" points="957.83 601.34 752.13 927.72 749.39 667.17 957.83 601.34"/><polygon class="cls-2" points="1015.43 579.4 957.83 601.34 749.39 667.17 752.13 373.7 1015.43 579.4"/><polygon class="cls-2" points="1078.51 368.22 1015.43 579.4 752.13 373.7 1078.51 368.22"/><polygon class="cls-2" points="1078.51 368.22 752.13 373.7 861.84 77.49 1078.51 368.22"/><polygon class="cls-2" points="749.39 667.17 604.03 683.62 461.41 691.85 464.15 535.52 749.39 667.17"/><polygon class="cls-2" points="464.15 535.52 461.41 691.85 335.25 639.74 464.15 535.52"/><polygon class="cls-2" points="464.15 535.52 335.25 639.74 302.33 527.29 464.15 535.52"/><polygon class="cls-2" points="752.13 373.7 464.15 535.52 620.48 192.69 752.13 373.7"/><polygon class="cls-2" points="861.84 77.49 752.13 373.7 620.48 192.69 861.84 77.49"/><polygon class="cls-2" points="861.84 77.49 620.48 192.69 576.6 0.7 861.84 77.49"/><polygon class="cls-2" points="620.48 192.69 464.15 535.52 318.79 327.08 620.48 192.69"/><polygon class="cls-2" points="464.15 535.52 302.33 527.29 318.79 327.08 464.15 535.52"/><polygon class="cls-2" points="620.48 192.69 318.79 327.08 285.88 28.13 620.48 192.69"/><polygon class="cls-2" points="318.79 327.08 302.33 527.29 104.86 445.01 318.79 327.08"/><polygon class="cls-2" points="318.79 327.08 85.67 203.66 285.88 28.13 318.79 327.08"/><polygon class="cls-2" points="318.79 327.08 104.86 445.01 85.67 203.66 318.79 327.08"/><polygon class="cls-2" points="620.48 192.69 285.88 28.13 576.6 0.7 620.48 192.69"/><polygon class="cls-2" points="752.13 373.7 749.39 667.17 464.15 535.52 752.13 373.7"/><circle class="cls-3" cx="318.79" cy="327.08" r="10.97"/><circle class="cls-3" cx="464.15" cy="535.52" r="10.97"/><circle class="cls-3" cx="620.48" cy="192.69" r="10.97"/><circle class="cls-3" cx="754.87" cy="376.44" r="10.97"/><circle class="cls-3" cx="318.79" cy="327.08" r="10.97"/><circle class="cls-3" cx="749.39" cy="667.17" r="10.97"/></g></svg>